Coordinates
version=1
nRows=8
nColumns=63
inDegrees=yes

Units are S.I. units (second, meters, Newtons, ...)
If the header above contains a line with 'inDegrees', this indicates whether rotational values are in degrees (yes) or radians (no).

endheader
time	pelvis_tilt	pelvis_list	pelvis_rotation	pelvis_tx	pelvis_ty	pelvis_tz	hip_flexion_r	hip_adduction_r	hip_rotation_r	knee_angle_r	knee_angle_r_beta	ankle_angle_r	subtalar_angle_r	mtp_angle_r	hip_flexion_l	hip_adduction_l	hip_rotation_l	knee_angle_l	knee_angle_l_beta	ankle_angle_l	subtalar_angle_l	mtp_angle_l	L5_S1_Flex_Ext	L5_S1_Lat_Bending	L5_S1_axial_rotation	L4_L5_Flex_Ext	L4_L5_Lat_Bending	L4_L5_axial_rotation	L3_L4_Flex_Ext	L3_L4_Lat_Bending	L3_L4_axial_rotation	L2_L3_Flex_Ext	L2_L3_Lat_Bending	L2_L3_axial_rotation	L1_L2_Flex_Ext	L1_L2_Lat_Bending	L1_L2_axial_rotation	L1_T12_Flex_Ext	L1_T12_Lat_Bending	L1_T12_axial_rotation	Abs_r3	Abs_r2	Abs_r1	Abs_t1	Abs_t2	neck_flexion	neck_bending	neck_rotation	arm_flex_r	arm_add_r	arm_rot_r	elbow_flex_r	pro_sup_r	wrist_flex_r	wrist_dev_r	arm_flex_l	arm_add_l	arm_rot_l	elbow_flex_l	pro_sup_l	wrist_flex_l	wrist_dev_l
      1.77966102	     -4.87258819	     -4.43261269	     94.63921940	      0.20584330	      0.81721490	      0.57123627	     -0.88331968	     -5.69840488	    -12.77345380	     11.04070962	      0.19269673	     22.70002245	      5.98203051	      0.00000000	     -1.75539525	      2.87232689	     15.69306122	      2.67366520	      0.04666426	      8.65062175	    -16.22345369	      0.00000000	      0.15793049	     -1.32614141	      0.58152402	      0.29329272	     -1.76376808	      0.61786927	      0.25946401	     -3.22438023	      0.61786927	      0.18049876	     -3.22438023	      0.50883351	      0.14665426	     -2.70426757	      0.47248826	      0.09024148	     -2.05419305	      0.43614301	      1.12808172	    -15.00157690	      3.23426212	      0.00000000	      0.00000000	     28.34444861	    -22.20355079	    -16.79536933	      2.96712210	    -12.96105488	    121.67282072	     10.98014033	      3.26835510	     -6.77986883	     -1.36819660	     10.46164636	    -20.42156876	    115.81700794	      9.59119827	      3.99188779	    -10.57703802	     -8.87091597
      1.79661017	     -5.01555240	     -4.77879025	     95.13368283	      0.20487741	      0.81754669	      0.57334990	     -0.45852275	     -5.95276897	    -13.22512255	     11.34079107	      0.19793414	     22.85211639	      5.98316193	      0.00000000	     -1.00511707	      3.13822182	     15.63177710	      3.18745987	      0.05563167	      9.14152109	    -15.35603884	      0.00000000	      0.16660628	     -1.38960274	      0.70296872	      0.30940451	     -1.84817164	      0.74690427	      0.27371745	     -3.37868010	      0.74690427	      0.19041431	     -3.37868010	      0.61509763	      0.15471059	     -2.83367790	      0.57116209	      0.09519883	     -2.15249464	      0.52722654	      1.19005197	    -15.71946409	      3.90970116	      0.00000000	      0.00000000	     28.34868935	    -24.97998029	    -19.40539661	      2.92611499	    -12.90136660	    125.24325784	     10.57461766	      3.75674571	     -6.81602734	     -1.84204050	     10.87060966	    -20.36078294	    118.90890029	      9.69213756	      4.13054144	    -10.66497238	     -9.15889321
      1.81355932	     -5.07113983	     -5.11528422	     95.63915621	      0.20361409	      0.81790547	      0.57571954	     -0.05453571	     -6.14585634	    -13.88847238	     11.56140889	      0.20178465	     23.14688580	      6.32600851	      0.00000000	     -0.17079679	      3.34560742	     15.21993053	      3.93680582	      0.06871022	      9.83747823	    -14.15058877	      0.00000000	      0.17602911	     -1.43191922	      0.79448041	      0.32690365	     -1.90445256	      0.84413544	      0.28919822	     -3.48156839	      0.84413544	      0.20118367	     -3.48156839	      0.69517036	      0.16346063	     -2.91996967	      0.64551533	      0.10058303	     -2.21804287	      0.59586031	      1.25735830	    -16.19815661	      4.41866169	      0.00000000	      0.00000000	     28.34943415	    -26.89176222	    -21.14950282	      3.22583191	    -12.50148483	    134.72777421	      9.71968662	      3.99845822	     -7.15769526	     -2.75599225	     11.19414902	    -20.07630259	    121.23272531	      9.70975052	      3.72682422	    -10.51817597	     -9.80629474
      1.83050847	     -5.08969486	     -5.40825589	     96.13331179	      0.20221426	      0.81814083	      0.57750982	      0.29276912	     -6.27667089	    -14.27598487	     11.76917522	      0.20541086	     23.63928092	      6.35482253	      0.00000000	      0.53278040	      3.51837029	     14.84214536	      4.63838660	      0.08095512	     10.35471747	    -13.20183264	      0.00000000	      0.20569010	     -1.45676753	      0.83846460	      0.38198708	     -1.93750081	      0.89086863	      0.33792826	     -3.54198457	      0.89086863	      0.23508321	     -3.54198457	      0.73365652	      0.19100382	     -2.97064034	      0.68125249	      0.11753132	     -2.25653290	      0.62884845	      1.46922379	    -16.47924563	      4.66328855	      0.00000000	      0.00000000	     28.36194034	    -26.85257662	    -20.71015403	      3.46239371	    -11.85520915	    146.48620846	      8.66588948	      3.85349442	     -7.71019021	     -3.47150800	     10.97672030	    -19.71963577	    121.12432660	      9.58709443	      3.68657687	    -10.11861894	    -10.55319823
      1.84745763	     -5.07533640	     -5.52873839	     96.55683167	      0.20101984	      0.81830119	      0.57857214	      0.45269542	     -6.33304278	    -14.50163500	     11.93903358	      0.20837545	     24.29926780	      6.36601484	      0.00000000	      0.92431350	      3.62835404	     14.86581614	      5.19900588	      0.09073977	     10.57266548	    -13.10634099	      0.00000000	      0.21641853	     -1.46616202	      0.86396633	      0.40191085	     -1.94999549	      0.91796422	      0.35555400	     -3.56482634	      0.91796422	      0.24734474	     -3.56482634	      0.75597054	      0.20096624	     -2.98979759	      0.70197264	      0.12366155	     -2.27108497	      0.64797474	      1.54585590	    -16.58551802	      4.80512152	      0.00000000	      0.00000000	     28.36760608	    -25.96997321	    -19.74794433	      3.44482799	    -11.33634761	    153.44373138	      7.91658758	      4.02774037	     -8.23662414	     -3.83903828	     10.49944535	    -19.23666299	    120.59565071	      9.18700796	      3.56250360	     -9.71522888	    -11.00698321
      1.86440678	     -5.06756644	     -5.52574681	     96.85735091	      0.20026115	      0.81833282	      0.57878175	      0.50398433	     -6.37007356	    -14.69372724	     12.14319033	      0.21193865	     25.10675792	      6.49642340	      0.00000000	      1.03429571	      3.68646985	     15.10255056	      5.54742760	      0.09682088	     10.48726140	    -13.46369242	      0.00000000	      0.21749281	     -1.46702918	      0.86904703	      0.40390589	     -1.95114881	      0.92336247	      0.35731893	     -3.56693474	      0.92336247	      0.24857253	     -3.56693474	      0.76041615	      0.20196382	     -2.99156590	      0.70610071	      0.12427539	     -2.27242820	      0.65178527	      1.55352936	    -16.59532746	      4.83337888	      0.00000000	      0.00000000	     28.36902715	    -24.30052990	    -18.25042134	      3.42237256	    -10.94178061	    156.02279171	      7.66505401	      3.87638875	     -8.51050199	     -3.96090711	      9.74497586	    -18.65313240	    119.86440463	      8.36087619	      3.36682906	     -9.30628668	    -11.13168023
      1.88135593	     -5.06641765	     -5.36211942	     97.05402445	      0.19978806	      0.81814168	      0.57845932	      0.37059659	     -6.36184518	    -14.68223900	     12.27311639	      0.21420629	     25.96862315	      6.41940711	      0.00000000	      0.85002612	      3.68376998	     15.15780660	      5.68042543	      0.09914213	     10.52102823	    -13.55901318	      0.00000000	      0.17926623	     -1.45893403	      0.88773210	      0.33291531	     -1.94038226	      0.94321536	      0.29451648	     -3.54725221	      0.94321536	      0.20488337	     -3.54725221	      0.77676559	      0.16646662	     -2.97505828	      0.72128234	      0.10243272	     -2.25988882	      0.66579908	      1.28048073	    -16.50375357	      4.93729965	      0.00000000	      0.00000000	     28.35125254	    -23.56242814	    -18.41249823	      3.38531783	    -10.58178858	    156.03192835	      7.50808457	      3.77435953	     -8.65050458	     -3.94863974	      9.15999639	    -18.04850705	    119.57457563	      7.48118044	      3.13116733	     -9.44557090	    -11.04232214
      1.89830508	     -5.10754984	     -5.12370170	     97.27975034	      0.19934990	      0.81777780	      0.57704691	      0.10737260	     -6.44204735	    -15.40653571	     12.48417674	      0.21788999	     26.89289744	      7.10062650	      0.00000000	      0.44444660	      3.70433195	     15.86459732	      5.63976243	      0.09843242	     10.34326415	    -14.41934996	      0.00000000	      0.16730338	     -1.44031812	      0.83258792	      0.31069911	     -1.91562310	      0.88462467	      0.27486273	     -3.50198948	      0.88462467	      0.19121104	     -3.50198948	      0.72851443	      0.15535792	     -2.93709671	      0.67647769	      0.09559715	     -2.23105277	      0.62444094	      1.19503133	    -16.29316665	      4.63060425	      0.00000000	      0.00000000	     28.35621893	    -20.15736540	    -15.14192921	      3.43896439	    -10.21621609	    155.13030059	      7.76090517	      3.21297202	     -8.72588142	     -3.73366062	      8.23970891	    -17.61076102	    117.43358015	      6.59091861	      2.78790406	     -9.10770860	    -10.70199300
